<svg width="34" height="51" viewBox="0 0 34 51" fill="none" xmlns="http://www.w3.org/2000/svg">
<path d="M32.5 25.8421C32.4995 57.241 1.50101 56.4298 1.50006 25.8421" stroke="white" stroke-width="3"/>
<path d="M1.5 25.8421C1.5 23.8026 2.31579 20.9474 17.4079 20.9474" stroke="white" stroke-width="3"/>
<path d="M32.5 25.8421C32.5 23.8026 31.3391 20.9474 17.4079 20.9474" stroke="white" stroke-width="3"/>
<path d="M17.5 0C23.0228 0 27.5 4.47715 27.5 10V13.5H24.5V10C24.5 6.13401 21.366 3 17.5 3C13.634 3 10.5 6.13401 10.5 10V21H7.5V10C7.5 4.47715 11.9772 0 17.5 0Z" fill="white"/>
<ellipse cx="17" cy="31.5526" rx="4.07894" ry="4.07894" fill="white"/>
<path d="M14.9605 33.5921H19.0394V38.7303C19.0394 39.8348 18.144 40.7303 17.0394 40.7303H16.9605C15.8559 40.7303 14.9605 39.8348 14.9605 38.7303V33.5921Z" fill="white"/>
</svg>
